<svg width="28" height="16" viewBox="0 0 28 16" fill="none" xmlns="http://www.w3.org/2000/svg">
<path d="M26.489 1.24695C26.6689 0.636597 26.489 0.187378 25.6238 0.187378H22.7606C22.0314 0.187378 21.696 0.57312 21.5161 1.00281C21.5161 1.00281 20.0578 4.57214 17.9967 6.8866C17.3307 7.55554 17.0245 7.77039 16.6599 7.77039C16.48 7.77039 16.2029 7.55554 16.2029 6.94519V1.24695C16.2029 0.514526 15.9988 0.187378 15.396 0.187378H10.8946C10.4376 0.187378 10.1654 0.529175 10.1654 0.846558C10.1654 1.53992 11.196 1.70105 11.3029 3.65417V7.89246C11.3029 8.82019 11.1376 8.99109 10.7731 8.99109C9.80084 8.99109 7.43834 5.4071 6.03834 1.30554C5.7564 0.509644 5.47931 0.187378 4.74529 0.187378H1.88209C1.06542 0.187378 0.900146 0.57312 0.900146 1.00281C0.900146 1.76453 1.87237 5.54871 5.42584 10.5487C7.7932 13.9618 11.1279 15.8124 14.1613 15.8124C15.9842 15.8124 16.2078 15.4022 16.2078 14.6942C16.2078 11.4325 16.0425 11.1249 16.9564 11.1249C17.3793 11.1249 18.1085 11.3397 19.8099 12.9852C21.7543 14.9384 22.0751 15.8124 23.164 15.8124H26.0272C26.8439 15.8124 27.2571 15.4022 27.0189 14.5917C26.4745 12.8876 22.7946 9.38171 22.6293 9.14734C22.2064 8.60046 22.3279 8.35632 22.6293 7.86804C22.6342 7.86316 26.1293 2.92175 26.489 1.24695Z" fill="white"/>
</svg>
