<svg width="17" height="16" viewBox="0 0 17 16" fill="none" xmlns="http://www.w3.org/2000/svg">
<g clip-path="url(#clip0_111_14411)">
<path d="M8.35873 2.13965L10.078 5.88864L14.0358 6.43151L11.1405 9.29139L11.8674 13.3759L8.35873 11.3944L4.8501 13.3759L5.57696 9.29139L2.68164 6.43151L6.6395 5.88864L8.35873 2.13965Z" fill="url(#paint0_linear_111_14411)"/>
<path d="M15.7664 6.24459C16.0418 5.96266 15.8828 5.48738 15.4932 5.42794L10.8603 4.72112L8.79666 0.329432C8.62239 -0.0414517 8.09485 -0.0414509 7.92058 0.329432L5.85699 4.72112L1.22401 5.42795C0.834427 5.48739 0.675401 5.96264 0.950755 6.24458L4.31778 9.69214L3.52541 14.547C3.46034 14.9457 3.88345 15.2439 4.23705 15.0487L8.35862 12.7726L12.4801 15.0486C12.8337 15.2439 13.2569 14.9456 13.1918 14.5469L12.399 9.69212L15.7664 6.24459ZM8.35862 11.6029L4.61321 13.7027L5.3281 9.46575L2.10351 6.1741L6.46498 5.60691L8.35862 1.57113L10.2351 5.60694L14.582 6.22353L11.3891 9.48139L12.0566 13.7184L8.35862 11.6029Z" fill="black"/>
</g>
<defs>
<linearGradient id="paint0_linear_111_14411" x1="-3.63412" y1="-5.6633" x2="16.1848" y2="-3.28383" gradientUnits="userSpaceOnUse">
<stop stop-color="#F64D4D"/>
<stop offset="1" stop-color="#4D5EF6"/>
</linearGradient>
<clipPath id="clip0_111_14411">
<rect width="16" height="16" fill="white" transform="translate(0.599976)"/>
</clipPath>
</defs>
</svg>
